# xmcd CD database file
#
# Track frame offsets:
#	150
#	16537
#	34992
#	56962
#	70350
#	87820
#	106442
#	122210
#	139290
#	158152
#	171697
#	188765
#	208970
#	226457
#
# Disc length: 3202 seconds
#
# Revision: 0
# Processed by: cddbd v1.4PL0 Copyright (c) Steve Scherf et al.
# Submitted via: CDex 1.40Beta8
#
DISCID=d00c800e
DTITLE=Old West - Coyote Serenade
DYEAR=1997
DGENRE=Country
TTITLE0=Cowboy School
TTITLE1=Cattle Call
TTITLE2=Ghost Riders in the Sky
TTITLE3=The Wayward Wind
TTITLE4=The Strawberry Roan
TTITLE5=Minstrel of the Range
TTITLE6=When It's Springtime in the Rockies
TTITLE7=Travelin' Light
TTITLE8=The Cowboy
TTITLE9=Cowpoke
TTITLE10=Along the Navajo Trail
TTITLE11=Coyotes
TTITLE12=My Adobe Hacienda
TTITLE13=Coyote Serenade
EXTD=YEAR: 1997 ID3G: 2
EXTT0=
EXTT1=
EXTT2=
EXTT3=
EXTT4=
EXTT5=
EXTT6=
EXTT7=
EXTT8=
EXTT9=
EXTT10=
EXTT11=
EXTT12=
EXTT13=
PLAYORDER=
